<svg width="40" height="40" viewBox="0 0 40 40" fill="none" xmlns="http://www.w3.org/2000/svg">
<g id="Property 1=Beatmaker">
<g id="Group 761">
<path id="Vector" d="M19.9306 4C21.521 4 22.8104 5.28941 22.8104 6.8802V32.4233C22.8104 34.0141 21.521 35.3035 19.9306 35.3035C18.3398 35.3035 17.0504 34.0141 17.0504 32.4233V6.8802C17.0504 5.28941 18.3398 4 19.9306 4Z" fill="white"/>
<path id="Vector_2" d="M2.8802 13.9534C4.47064 13.9534 5.76006 15.2428 5.76006 16.8336V22.4711C5.76006 24.0615 4.47064 25.351 2.8802 25.351C1.28941 25.351 0 24.0615 0 22.4711V16.8336C0 15.2428 1.28941 13.9534 2.8802 13.9534Z" fill="white"/>
<path id="Vector_3" d="M40 16.8334C40 15.2426 38.7106 13.9532 37.1201 13.9532C35.5294 13.9532 34.2399 15.2426 34.2399 16.8334V22.4709C34.2399 24.0614 35.5294 25.3508 37.1201 25.3508C38.7106 25.3508 40 24.0614 40 22.4709V16.8334Z" fill="white"/>
<path id="Vector_4" d="M28.5254 10.0551C30.1158 10.0551 31.4052 11.3445 31.4052 12.9353V26.3677C31.4052 27.9581 30.1158 29.2475 28.5254 29.2475C26.9346 29.2475 25.6452 27.9581 25.6452 26.3677V12.9353C25.6452 11.3445 26.9346 10.0551 28.5254 10.0551Z" fill="white"/>
<path id="Vector_5" d="M14.2845 12.9351C14.2845 11.3443 12.9951 10.0549 11.4043 10.0549C9.8139 10.0549 8.52449 11.3443 8.52449 12.9351V26.3675C8.52449 27.958 9.8139 29.2474 11.4043 29.2474C12.9951 29.2474 14.2845 27.958 14.2845 26.3675V12.9351Z" fill="white"/>
</g>
</g>
</svg>
