<svg width="40" height="40" viewBox="0 0 40 40" fill="none" xmlns="http://www.w3.org/2000/svg">
<g id="Property 1=Clipeur">
<path id="Vector" fill-rule="evenodd" clip-rule="evenodd" d="M30 31.6364V8.36364C30 7.20582 29.5485 6.09612 28.7442 5.27859C27.9413 4.45975 26.8513 4 25.7143 4H4.28571C3.14857 4 2.05869 4.45974 1.25576 5.27859C0.451543 6.09612 0 7.2059 0 8.36364V31.6364C0 32.7942 0.451527 33.9039 1.25576 34.7214C2.05869 35.5402 3.14865 36 4.28571 36H25.7143C26.8514 36 27.9413 35.5403 28.7442 34.7214C29.5485 33.9039 30 32.7941 30 31.6364ZM32.8571 10.5787V29.4213L36.0813 30.7346C36.9614 31.0924 37.9602 30.9833 38.7442 30.4424C39.53 29.9012 40 28.9996 40 28.0337V11.9672C40 11.0013 39.53 10.0996 38.7442 9.55847C37.9601 9.01757 36.9614 8.90848 36.0813 9.26627L32.8571 10.5787ZM8.57143 11.2725C6.99429 11.2725 5.71429 12.5758 5.71429 14.1816C5.71429 15.7874 6.99429 17.0907 8.57143 17.0907C10.1486 17.0907 11.4286 15.7874 11.4286 14.1816C11.4286 12.5758 10.1486 11.2725 8.57143 11.2725Z" fill="white"/>
</g>
</svg>
