<svg width="40" height="40" viewBox="0 0 40 40" fill="none" xmlns="http://www.w3.org/2000/svg">
<g id="Property 1=Influenceur" clip-path="url(#clip0_407_1266)">
<path id="Vector" fill-rule="evenodd" clip-rule="evenodd" d="M21.6887 1.14921C21.415 0.455672 20.7451 0 19.9998 0C19.2538 0 18.5838 0.455713 18.311 1.14921L13.4566 13.4566L1.14921 18.311C0.455671 18.5839 0 19.2538 0 19.9998C0 20.7447 0.455713 21.415 1.14921 21.6887L13.4566 26.5423L18.311 38.8508C18.5839 39.5435 19.2538 40 19.9998 40C20.7447 40 21.415 39.5435 21.6887 38.8508L26.5423 26.5423L38.8508 21.6887C39.5435 21.415 40 20.7451 40 19.9998C40 19.2538 39.5435 18.5838 38.8508 18.311L26.5423 13.4566L21.6887 1.14921Z" fill="white"/>
</g>
<defs>
<clipPath id="clip0_407_1266">
<rect width="40" height="40" fill="white"/>
</clipPath>
</defs>
</svg>
