<svg width="40" height="40" viewBox="0 0 40 40" fill="none" xmlns="http://www.w3.org/2000/svg">
<g id="Property 1=Label" clip-path="url(#clip0_407_1271)">
<path id="Subtract" fill-rule="evenodd" clip-rule="evenodd" d="M26.3203 2.14345C25.9362 1.45399 25.5455 0.752683 25.1831 0.655527C24.8206 0.558379 24.1318 0.970452 23.4543 1.37553C22.8349 1.7459 22.2252 2.11042 21.884 2.07457C21.5428 2.03871 21.0222 1.5554 20.4934 1.06434C19.9149 0.527261 19.3265 -0.0190949 18.9517 0.00051249C18.5771 0.0201024 18.049 0.624921 17.5299 1.21949C17.0552 1.76307 16.5881 2.29808 16.2526 2.36946C15.917 2.44087 15.2726 2.14208 14.6178 1.83849C13.9017 1.50649 13.1733 1.16876 12.823 1.30323C12.4726 1.43773 12.1573 2.17621 11.8473 2.90216C11.5639 3.56593 11.2849 4.21921 10.9878 4.39071C10.6907 4.5622 9.98555 4.47716 9.2691 4.39075C8.48542 4.29623 7.68817 4.20007 7.39648 4.43622C7.10478 4.67237 7.03309 5.47221 6.96263 6.25844C6.89821 6.97721 6.83481 7.68459 6.60526 7.93952C6.3757 8.19446 5.67869 8.33157 4.97052 8.47088C4.19609 8.62322 3.40831 8.77819 3.20392 9.09275C2.99972 9.40746 3.17863 10.1901 3.35452 10.9595C3.51539 11.6632 3.67372 12.3558 3.53409 12.6692C3.3946 12.9827 2.77398 13.3285 2.14344 13.6797C1.45398 14.0638 0.752661 14.4545 0.655526 14.817C0.558379 15.1794 0.970451 15.8686 1.37553 16.5461C1.7459 17.1655 2.11042 17.7751 2.07457 18.1163C2.03871 18.4574 1.55543 18.9779 1.06438 19.5068C0.527288 20.0852 -0.0190953 20.6737 0.00051249 21.0483C0.0201023 21.4229 0.624921 21.951 1.21949 22.4701C1.76307 22.9448 2.29808 23.4119 2.36947 23.7474C2.44087 24.083 2.14208 24.7275 1.83849 25.3822C1.50649 26.0983 1.16876 26.8267 1.30323 27.177C1.43773 27.5274 2.17621 27.8427 2.90216 28.1527C3.56593 28.4361 4.21921 28.7151 4.39072 29.0122C4.5622 29.3093 4.47716 30.0144 4.39074 30.7309C4.29622 31.5146 4.20005 32.3118 4.43622 32.6035C4.67234 32.895 5.47198 32.9667 6.25809 33.0372C6.97698 33.1017 7.68455 33.1652 7.93952 33.3947C8.19464 33.6243 8.33168 34.3214 8.47091 35.0296C8.62316 35.804 8.77803 36.5917 9.09275 36.7961C9.40745 37.0003 10.1899 36.8214 10.9593 36.6455C11.663 36.4846 12.3556 36.3263 12.6692 36.4659C12.9827 36.6054 13.3285 37.226 13.6797 37.8566C14.0638 38.546 14.4545 39.2473 14.817 39.3445C15.1794 39.4416 15.8686 39.0295 16.5461 38.6245C17.1655 38.2541 17.7751 37.8896 18.1163 37.9254C18.4574 37.9613 18.9777 38.4445 19.5065 38.9355C20.0849 39.4726 20.6735 40.0191 21.0483 39.9995C21.4229 39.9799 21.951 39.3751 22.4702 38.7805C22.9448 38.2369 23.4119 37.7019 23.7474 37.6305C24.083 37.5591 24.7275 37.8579 25.3822 38.1615C26.0983 38.4935 26.8267 38.8312 27.177 38.6968C27.5274 38.5623 27.8427 37.8238 28.1527 37.0978C28.4361 36.4341 28.7151 35.7808 29.0122 35.6093C29.3093 35.4378 30.0144 35.5229 30.7309 35.6093C31.5146 35.7038 32.3118 35.8 32.6035 35.5638C32.895 35.3277 32.9667 34.528 33.0372 33.7419C33.1017 33.023 33.1652 32.3154 33.3947 32.0605C33.6243 31.8054 34.3214 31.6683 35.0296 31.5291C35.804 31.3768 36.5917 31.222 36.7961 30.9073C37.0003 30.5926 36.8214 29.8101 36.6455 29.0407C36.4846 28.337 36.3263 27.6444 36.4659 27.3308C36.6054 27.0173 37.226 26.6715 37.8566 26.3203C38.546 25.9362 39.2473 25.5455 39.3445 25.183C39.4416 24.8206 39.0295 24.1314 38.6245 23.4539C38.2541 22.8345 37.8896 22.2249 37.9254 21.8837C37.9613 21.5426 38.4445 21.0223 38.9355 20.4935C39.4726 19.9151 40.0191 19.3265 39.9995 18.9517C39.9799 18.5771 39.3751 18.049 38.7805 17.5298C38.2369 17.0552 37.7019 16.5881 37.6305 16.2526C37.5591 15.917 37.8579 15.2726 38.1615 14.6178C38.4935 13.9017 38.8312 13.1733 38.6968 12.823C38.5623 12.4726 37.8238 12.1573 37.0978 11.8473C36.4341 11.5639 35.7808 11.2849 35.6093 10.9878C35.4378 10.6907 35.5229 9.98557 35.6093 9.26913C35.7038 8.48544 35.8 7.68817 35.5638 7.39648C35.3277 7.10499 34.528 7.03328 33.7419 6.96278C33.023 6.8983 32.3155 6.83484 32.0605 6.60526C31.8054 6.37569 31.6683 5.67862 31.5291 4.97042C31.3768 4.19602 31.222 3.4083 30.9073 3.20392C30.5926 2.99973 29.8101 3.17862 29.0407 3.3545C28.3371 3.51537 27.6444 3.67373 27.3308 3.53409C27.0173 3.3946 26.6715 2.77398 26.3203 2.14345ZM16.6058 13.759L24.6722 19.1348C25.2792 19.54 25.2792 20.4585 24.6722 20.8502L16.6058 26.226C15.9179 26.6852 14.9872 26.199 14.9872 25.3616V14.6235C14.9872 13.7995 15.9179 13.2998 16.6058 13.759Z" fill="white"/>
</g>
<defs>
<clipPath id="clip0_407_1271">
<rect width="40" height="40" fill="white"/>
</clipPath>
</defs>
</svg>
