<svg width="40" height="40" viewBox="0 0 40 40" fill="none" xmlns="http://www.w3.org/2000/svg">
<g id="Property 1=Musique" clip-path="url(#clip0_407_1700)">
<path id="Vector" d="M12.4889 7.51041L40 0V28.7756C40 32.2452 36.0813 35.0207 31.2652 35.0207C26.4491 35.0207 22.5305 32.2044 22.5305 28.7756C22.5305 25.3471 26.4491 22.5305 31.2652 22.5305C32.6122 22.5305 33.8775 22.7346 35.0203 23.1425V10.2446L17.5101 15.02V33.7549C17.5101 37.2245 13.5915 40 8.77537 40C3.9591 40 0 37.1839 0 33.7549C0 30.3264 3.91865 27.5098 8.73477 27.5098C10.0817 27.5098 11.347 27.7139 12.4898 28.1218L12.4889 7.51041Z" fill="white"/>
</g>
<defs>
<clipPath id="clip0_407_1700">
<rect width="40" height="40" fill="white"/>
</clipPath>
</defs>
</svg>
