<svg width="40" height="40" viewBox="0 0 40 40" fill="none" xmlns="http://www.w3.org/2000/svg">
<g id="Property 1=Playlist">
<g id="Group 737">
<path id="Vector" d="M13.6062 28.6088H3.69558C1.67992 28.6088 0 30.2466 0 32.3044C0 34.3622 1.63778 36 3.69558 36H13.6062C15.6219 36 17.3018 34.3622 17.3018 32.3044C17.3015 30.2466 15.6219 28.6088 13.6062 28.6088Z" fill="white"/>
<path id="Vector_2" d="M13.6062 16.3045H3.69558C1.67992 16.3045 0 17.9423 0 20.0001C0 22.0579 1.63778 23.6957 3.69558 23.6957H13.6062C15.6219 23.6957 17.3018 22.0579 17.3018 20.0001C17.3015 17.9423 15.6219 16.3045 13.6062 16.3045Z" fill="white"/>
<path id="Vector_3" d="M3.69558 11.3912H36.1992C38.2149 11.3912 39.8948 9.75338 39.8948 7.69558C39.8948 5.63778 38.257 4 36.1992 4L3.69558 4.00029C1.67992 4.00029 0 5.63807 0 7.69587C0 9.75344 1.63778 11.3912 3.69558 11.3912Z" fill="white"/>
<path id="Vector_4" d="M38.047 23.1496L27.3384 17.0183C26.2466 16.3885 24.9446 16.3885 23.8947 17.0183C22.8029 17.6481 22.1729 18.782 22.1729 20V32.2204C22.1729 33.4803 22.8027 34.572 23.8947 35.2021C24.4407 35.5381 25.0286 35.6641 25.6166 35.6641C26.2045 35.6641 26.7924 35.4962 27.3384 35.2021L38.047 29.0708C39.1387 28.441 39.8107 27.307 39.8107 26.0472C39.8107 24.9133 39.139 23.7794 38.047 23.1495V23.1496Z" fill="white"/>
</g>
</g>
</svg>
