<svg width="40" height="40" viewBox="0 0 40 40" fill="none" xmlns="http://www.w3.org/2000/svg">
<g id="Property 1=Projet">
<path id="Vector" d="M5.04772 8.35975V10.5611L0 10.5615V8.35973C0 7.83615 0.423322 7.41161 0.946339 7.41161H4.10138C4.35233 7.41161 4.59314 7.5115 4.77058 7.68927C4.94801 7.86705 5.04772 8.10833 5.04772 8.35975ZM0 33.7987L1.69281 36.9162C1.85842 37.2213 2.17739 37.4114 2.52424 37.4114C2.87066 37.4114 3.19005 37.2213 3.35567 36.9162L5.04772 33.7987V13.4059H0V33.7987ZM31.2735 2.54531V10.0279H37.4134L31.2735 2.54531ZM29.854 12.8723C29.0699 12.8723 28.4345 12.2353 28.4345 11.4501V0H9.65807C9.13547 0 8.71173 0.424543 8.71173 0.948124V39.0519C8.71173 39.3033 8.81144 39.5441 8.98887 39.7219C9.16631 39.9001 9.40712 40 9.65807 40H38.0537C38.305 40 38.5454 39.9001 38.7229 39.7219C38.9003 39.5441 39 39.3033 39 39.0519V12.8717L29.854 12.8723Z" fill="white"/>
</g>
</svg>
