<svg width="40" height="40" viewBox="0 0 40 40" fill="none" xmlns="http://www.w3.org/2000/svg">
<g id="Property 1=Radio">
<path id="Vector" fill-rule="evenodd" clip-rule="evenodd" d="M10.6891 7.42589e-06C9.70678 7.42589e-06 8.89149 0.830093 8.89149 1.831C8.89149 2.51251 9.27503 3.10314 9.82535 3.42093V11.2135H7.86031C6.87795 11.2135 6.07668 12.0465 6.07668 13.0445V15.571H4.89213L4.89182 15.5713C4.39939 15.5713 4 15.9781 4 16.4796V39.0916C4 39.5932 4.39941 40 4.89182 40H36.1082C36.6006 40 37 39.5932 37 39.0916V16.4796C37 15.9781 36.6006 15.5713 36.1082 15.5713H34.9096V13.0449C34.9096 12.0468 34.108 11.2139 33.126 11.2139H11.609V3.39269C12.1247 3.06508 12.4729 2.48336 12.4729 1.83099C12.4729 0.83552 11.6718 0 10.6892 0L10.6891 7.42589e-06ZM7.86031 13.0304H9.82535V15.5711H7.86031V13.0447C7.86031 13.0346 7.85596 13.0308 7.86031 13.0308V13.0304ZM11.609 13.0304H33.126C33.1303 13.0304 33.126 13.0349 33.126 13.0444V15.5708H11.609V13.0301V13.0304ZM8.79378 18.5095C9.7665 18.5095 10.5774 19.3333 10.5774 20.3262C10.5774 21.3192 9.76642 22.1433 8.79378 22.1433C7.82113 22.1433 7.01014 21.3192 7.01014 20.3262C7.01014 19.3333 7.82113 18.5095 8.79378 18.5095ZM32.206 18.5095C33.1788 18.5095 33.9897 19.3333 33.9897 20.3262C33.9897 21.3192 33.1787 22.1433 32.206 22.1433C31.2334 22.1433 30.4224 21.3192 30.4224 20.3262C30.4224 19.3333 31.2337 18.5095 32.206 18.5095ZM12.7516 18.6375C12.7842 18.6356 12.8166 18.6356 12.8492 18.6375H28.0951C28.5878 18.6375 28.9869 19.044 28.9869 19.5459V21.3626C28.9869 21.8645 28.5878 22.271 28.0951 22.271H12.8492C12.3565 22.271 11.9574 21.8644 11.9574 21.3626V19.5459C11.9546 19.0804 12.2974 18.6882 12.7516 18.6375ZM11.9851 25.7911C14.1299 25.7911 15.8871 27.58 15.8871 29.7655C15.8871 31.9485 14.1299 33.7399 11.9851 33.7399C9.84024 33.7399 8.08305 31.9485 8.08305 29.7655C8.08305 27.58 9.84024 25.7911 11.9851 25.7911ZM29.0012 25.7911C31.146 25.7911 32.9032 27.58 32.9032 29.7655C32.9032 31.9485 31.146 33.7399 29.0012 33.7399C26.8563 33.7399 25.0991 31.9485 25.0991 29.7655C25.0991 27.58 26.8563 25.7911 29.0012 25.7911Z" fill="white"/>
</g>
</svg>
