<svg width="40" height="40" viewBox="0 0 40 40" fill="none" xmlns="http://www.w3.org/2000/svg">
<g id="Property 1=R&#195;&#169;seaux sociaux">
<path id="Vector" d="M34 26.9998C31.9166 26.9998 29.9998 28.0831 28.9167 29.7499L11.7501 21.7499C11.9167 21.1666 12.0001 20.5832 12.0001 19.9999C12.0001 19.4166 11.9167 18.8332 11.7501 18.3334L28.8333 10.2501C29.9166 11.9166 31.7499 13.0001 33.9166 13.0001C37.25 13.0001 39.9167 10.3335 39.9167 7.00006C39.9167 3.66666 37.25 1 33.9166 1C30.5832 1 27.9166 3.66666 27.9166 7.00006C27.9166 7.58338 28 8.25013 28.1665 8.75006L11.0833 16.8334C10.0001 15.1669 8.16676 14.0002 6.00003 14.0002C2.66665 13.9999 0 16.6666 0 20C0 23.3334 2.66665 26 6.00003 26C8.08335 26 10.0002 24.9168 11.0833 23.25L28.2499 31.2499C28.0833 31.8333 27.9999 32.4166 27.9999 32.9999C27.9999 36.3333 30.6666 39 34 39C37.3333 39 40 36.3333 40 32.9999C40 29.7499 37.3333 26.9999 34 26.9999V26.9998Z" fill="white"/>
</g>
</svg>
