<svg width="32" height="32" viewBox="0 0 32 32" fill="none" xmlns="http://www.w3.org/2000/svg">
<g id="Qui &#195;&#170;tes vous" clip-path="url(#clip0_671_4459)">
<path id="Vector" d="M23.9164 0.799988C21.344 0.799988 19.0606 1.97469 17.6034 3.78657L28.7617 14.4487C30.6583 13.0548 31.8884 10.8713 31.8884 8.41389C31.8884 4.21424 28.3112 0.800547 23.916 0.800547L23.9164 0.799988ZM16.9609 4.71085C16.3195 5.80784 15.9502 7.06965 15.9502 8.41364C15.9502 8.55837 16.0107 8.69729 16.1182 8.79928L23.5174 15.8711H23.5171C23.6231 15.9726 23.7664 16.0304 23.9164 16.0314C25.3241 16.0314 26.6453 15.6773 27.7945 15.0624L16.9609 4.71085ZM15.062 9.25293L0.707944 26.022H0.70769C0.523442 26.2379 0.539707 26.5522 0.745557 26.7499L4.72939 30.56V30.5597C4.93652 30.7584 5.26766 30.7742 5.49436 30.5959L23.0382 16.8775C22.9211 16.8095 22.8095 16.733 22.7114 16.6385L15.3155 9.57101C15.2151 9.47582 15.1338 9.36726 15.0621 9.25336L15.062 9.25293ZM15.9436 13.8523C16.0976 13.8511 16.2455 13.9093 16.3538 14.014L18.0593 15.6438H18.0595C18.1673 15.746 18.2278 15.8849 18.2278 16.0299C18.2278 16.1752 18.1673 16.3141 18.0595 16.4163L15.2132 19.1362C14.9896 19.3475 14.6292 19.3456 14.4081 19.1321L12.7026 17.5031C12.4794 17.2915 12.4779 16.9472 12.699 16.7337L15.5454 14.0138C15.6508 13.912 15.7936 13.8542 15.9436 13.8525L15.9436 13.8523ZM15.9502 15.1666L13.909 17.1174L14.8117 17.98L16.8531 16.0292L15.9502 15.1666ZM1.53046 29.0392L0.173844 30.3356C0.0638031 30.4371 0.00128777 30.5767 1.26095e-05 30.7229C-0.00100394 30.8691 0.0594807 31.0097 0.167996 31.1127C0.276261 31.2159 0.423659 31.273 0.576646 31.2711C0.729632 31.2691 0.875515 31.2084 0.981236 31.1028L2.33427 29.8086L1.53046 29.0392Z" fill="white"/>
</g>
<defs>
<clipPath id="clip0_671_4459">
<rect width="32" height="32" fill="white"/>
</clipPath>
</defs>
</svg>
