<svg width="40" height="40" viewBox="0 0 40 40" fill="none" xmlns="http://www.w3.org/2000/svg">
<g id="Instagram_logo_2016 1">
<path id="Vector" d="M20.0103 0.30304C11.7855 0.30304 9.38002 0.311524 8.91245 0.350312C7.22457 0.490615 6.17427 0.756373 5.03002 1.32607C4.14821 1.76395 3.45275 2.27152 2.76639 2.98304C1.51639 4.28062 0.758812 5.87698 0.484569 7.77455C0.351236 8.69577 0.312448 8.88365 0.304569 13.5891C0.301539 15.1576 0.304569 17.2218 0.304569 19.9906C0.304569 28.2088 0.31366 30.6118 0.353054 31.0785C0.489418 32.7209 0.746994 33.7543 1.29245 34.8846C2.33487 37.0482 4.32578 38.6724 6.67124 39.2785C7.48336 39.4876 8.38033 39.6027 9.53184 39.6573C10.0197 39.6785 14.9924 39.6936 19.9682 39.6936C24.944 39.6936 29.9197 39.6876 30.3955 39.6633C31.7288 39.6006 32.5031 39.4967 33.3591 39.2755C35.7197 38.6664 37.6743 37.0664 38.7379 34.8724C39.2728 33.7694 39.544 32.6967 39.6667 31.14C39.6934 30.8006 39.7046 25.3894 39.7046 19.9855C39.7046 14.5806 39.6925 9.1794 39.6658 8.84001C39.5415 7.25819 39.2703 6.19455 38.7182 5.07031C38.2652 4.15001 37.7621 3.46274 37.0318 2.76001C35.7285 1.51516 34.1346 0.757585 32.2352 0.483646C31.3149 0.350615 31.1315 0.311221 26.4224 0.30304H20.0103Z" fill="url(#paint0_radial_540_4007)"/>
<path id="Vector_2" d="M20.0103 0.30304C11.7855 0.30304 9.38002 0.311524 8.91245 0.350312C7.22457 0.490615 6.17427 0.756373 5.03002 1.32607C4.14821 1.76395 3.45275 2.27152 2.76639 2.98304C1.51639 4.28062 0.758812 5.87698 0.484569 7.77455C0.351236 8.69577 0.312448 8.88365 0.304569 13.5891C0.301539 15.1576 0.304569 17.2218 0.304569 19.9906C0.304569 28.2088 0.31366 30.6118 0.353054 31.0785C0.489418 32.7209 0.746994 33.7543 1.29245 34.8846C2.33487 37.0482 4.32578 38.6724 6.67124 39.2785C7.48336 39.4876 8.38033 39.6027 9.53184 39.6573C10.0197 39.6785 14.9924 39.6936 19.9682 39.6936C24.944 39.6936 29.9197 39.6876 30.3955 39.6633C31.7288 39.6006 32.5031 39.4967 33.3591 39.2755C35.7197 38.6664 37.6743 37.0664 38.7379 34.8724C39.2728 33.7694 39.544 32.6967 39.6667 31.14C39.6934 30.8006 39.7046 25.3894 39.7046 19.9855C39.7046 14.5806 39.6925 9.1794 39.6658 8.84001C39.5415 7.25819 39.2703 6.19455 38.7182 5.07031C38.2652 4.15001 37.7621 3.46274 37.0318 2.76001C35.7285 1.51516 34.1346 0.757585 32.2352 0.483646C31.3149 0.350615 31.1315 0.311221 26.4224 0.30304H20.0103Z" fill="url(#paint1_radial_540_4007)"/>
<path id="Vector_3" d="M20.0012 5.45456C16.0509 5.45456 15.5551 5.47183 14.0036 5.54244C12.4551 5.61335 11.3982 5.8585 10.4733 6.2182C9.51665 6.58971 8.70513 7.08668 7.89665 7.89547C7.08756 8.70395 6.59059 9.51547 6.21786 10.4718C5.85726 11.397 5.6118 12.4543 5.5421 14.0021C5.47271 15.5537 5.45453 16.0497 5.45453 20C5.45453 23.9503 5.4721 24.4446 5.54241 25.9961C5.61362 27.5446 5.85877 28.6015 6.21817 29.5264C6.58998 30.483 7.08695 31.2946 7.89574 32.103C8.70392 32.9121 9.51544 33.4103 10.4715 33.7818C11.397 34.1415 12.4542 34.3867 14.0024 34.4576C15.5539 34.5282 16.0494 34.5455 19.9994 34.5455C23.95 34.5455 24.4442 34.5282 25.9957 34.4576C27.5442 34.3867 28.6024 34.1415 29.5279 33.7818C30.4842 33.4103 31.2945 32.9121 32.1027 32.103C32.9118 31.2946 33.4088 30.483 33.7815 29.5267C34.1391 28.6015 34.3845 27.5443 34.4573 25.9964C34.527 24.4449 34.5451 23.9503 34.5451 20C34.5451 16.0497 34.527 15.554 34.4573 14.0024C34.3845 12.454 34.1391 11.397 33.7815 10.4721C33.4088 9.51547 32.9118 8.70395 32.1027 7.89547C31.2936 7.08638 30.4845 6.58941 29.527 6.2182C28.5997 5.8585 27.5421 5.61335 25.9936 5.54244C24.4421 5.47183 23.9482 5.45456 19.9966 5.45456H20.0012ZM18.6963 8.07577C19.0836 8.07517 19.5157 8.07577 20.0012 8.07577C23.8848 8.07577 24.3451 8.08971 25.8788 8.15941C27.297 8.22426 28.0667 8.46123 28.5794 8.66032C29.2582 8.92395 29.7421 9.2391 30.2509 9.7482C30.76 10.2573 31.0751 10.7421 31.3394 11.4209C31.5385 11.933 31.7757 12.7027 31.8403 14.1209C31.91 15.6543 31.9251 16.1149 31.9251 19.9967C31.9251 23.8785 31.91 24.3391 31.8403 25.8724C31.7754 27.2906 31.5385 28.0603 31.3394 28.5724C31.0757 29.2512 30.76 29.7346 30.2509 30.2433C29.7418 30.7524 29.2585 31.0676 28.5794 31.3312C28.0673 31.5312 27.297 31.7676 25.8788 31.8324C24.3454 31.9021 23.8848 31.9173 20.0012 31.9173C16.1173 31.9173 15.657 31.9021 14.1236 31.8324C12.7054 31.767 11.9357 31.53 11.4227 31.3309C10.7439 31.0673 10.2591 30.7521 9.74998 30.243C9.24089 29.734 8.92574 29.2503 8.6615 28.5712C8.46241 28.0591 8.22514 27.2894 8.16059 25.8712C8.09089 24.3379 8.07695 23.8773 8.07695 19.993C8.07695 16.1088 8.09089 15.6506 8.16059 14.1173C8.22544 12.6991 8.46241 11.9294 8.6615 11.4167C8.92514 10.7379 9.24089 10.253 9.74998 9.74395C10.2591 9.23486 10.7439 8.91971 11.4227 8.65547C11.9354 8.45547 12.7054 8.21911 14.1236 8.15395C15.4654 8.09335 15.9854 8.07517 18.6963 8.07214V8.07577ZM27.7654 10.4909C26.8018 10.4909 26.02 11.2718 26.02 12.2358C26.02 13.1994 26.8018 13.9812 27.7654 13.9812C28.7291 13.9812 29.5109 13.1994 29.5109 12.2358C29.5109 11.2721 28.7291 10.4903 27.7654 10.4903V10.4909ZM20.0012 12.5303C15.876 12.5303 12.5315 15.8749 12.5315 20C12.5315 24.1252 15.876 27.4682 20.0012 27.4682C24.1263 27.4682 27.4697 24.1252 27.4697 20C27.4697 15.8749 24.1263 12.5303 20.0012 12.5303ZM20.0012 15.1515C22.6788 15.1515 24.8497 17.3221 24.8497 20C24.8497 22.6776 22.6788 24.8485 20.0012 24.8485C17.3233 24.8485 15.1527 22.6776 15.1527 20C15.1527 17.3221 17.3233 15.1515 20.0012 15.1515Z" fill="white"/>
</g>
<defs>
<radialGradient id="paint0_radial_540_4007" cx="0" cy="0" r="1" gradientUnits="userSpaceOnUse" gradientTransform="translate(10.7693 42.7275) rotate(-90) scale(39.039 36.3192)">
<stop stop-color="#FFDD55"/>
<stop offset="0.1" stop-color="#FFDD55"/>
<stop offset="0.5" stop-color="#FF543E"/>
<stop offset="1" stop-color="#C837AB"/>
</radialGradient>
<radialGradient id="paint1_radial_540_4007" cx="0" cy="0" r="1" gradientUnits="userSpaceOnUse" gradientTransform="translate(-6.29671 3.14067) rotate(78.6776) scale(17.4508 71.951)">
<stop stop-color="#3771C8"/>
<stop offset="0.128" stop-color="#3771C8"/>
<stop offset="1" stop-color="#6600FF" stop-opacity="0"/>
</radialGradient>
</defs>
</svg>
