<svg width="40" height="40" viewBox="0 0 40 40" fill="none" xmlns="http://www.w3.org/2000/svg">
<g id="Property 1=Youtube-couleur" clip-path="url(#clip0_540_4013)">
<g id="Group">
<path id="Vector" d="M39.3009 10.3384C38.8384 8.61022 37.4802 7.25217 35.752 6.78957C32.623 5.95029 20.07 5.95029 20.07 5.95029C20.07 5.95029 7.51719 5.95029 4.38805 6.78957C2.65994 7.25217 1.30188 8.61022 0.839283 10.3384C2.51229e-07 13.4675 0 20 0 20C0 20 2.51229e-07 26.5326 0.839283 29.6617C1.30188 31.3898 2.65994 32.7479 4.38805 33.2104C7.51719 34.0497 20.07 34.0497 20.07 34.0497C20.07 34.0497 32.623 34.0497 35.752 33.2104C37.4802 32.7479 38.8384 31.3898 39.3009 29.6617C40.1402 26.5326 40.1402 20 40.1402 20C40.1402 20 40.1368 13.4675 39.3009 10.3384Z" fill="#FF0000"/>
<path id="Vector_2" d="M16.0522 26.0209L26.4805 20.0006L16.0522 13.9802V26.0209Z" fill="white"/>
</g>
</g>
<defs>
<clipPath id="clip0_540_4013">
<rect width="40" height="40" fill="white"/>
</clipPath>
</defs>
</svg>
