<svg width="40" height="40" viewBox="0 0 40 40" fill="none" xmlns="http://www.w3.org/2000/svg">
<g id="Property 1=TikTok - couleur">
<g id="Group 769">
<path id="Vector" d="M15.7624 15.7503V14.1903C15.221 14.1134 14.6748 14.0739 14.1282 14.0712C7.44077 14.0712 2 19.5129 2 26.2003C2 30.3024 4.05018 33.9339 7.17766 36.1299C5.08349 33.8903 3.91907 30.9384 3.92085 27.8723C3.92085 21.28 9.20695 15.9041 15.7624 15.7503Z" fill="#00F2EA"/>
<path id="Vector_2" d="M16.0486 33.4108C19.0325 33.4108 21.4663 31.0371 21.5774 28.0789L21.5876 1.67196H26.4119C26.3088 1.12042 26.2568 0.560876 26.2564 0H19.6672L19.6561 26.4079C19.5463 29.3651 17.1112 31.738 14.1282 31.738C13.2327 31.7384 12.3505 31.5202 11.5585 31.102C12.5962 32.5499 14.2673 33.409 16.0486 33.4108ZM35.4233 10.6358V9.16824C33.6504 9.17002 31.9154 8.65403 30.4314 7.68427C31.7327 9.18246 33.4842 10.218 35.4242 10.6358" fill="#00F2EA"/>
<path id="Vector_3" d="M30.4314 7.68295C28.9772 6.01899 28.1758 3.88348 28.1767 1.67331H26.4114C26.8732 4.1417 28.3261 6.31365 30.4314 7.68295ZM14.1282 20.6604C11.0705 20.664 8.59273 23.1417 8.58917 26.1994C8.59095 28.2581 9.73404 30.146 11.5576 31.1024C10.8762 30.1629 10.5096 29.0327 10.5096 27.8723C10.5127 24.8146 12.9904 22.336 16.0486 22.3324C16.6192 22.3324 17.1663 22.4266 17.6827 22.5888V15.8619C17.1414 15.785 16.5952 15.7454 16.0486 15.7428C15.9526 15.7428 15.8579 15.7481 15.7628 15.7499V20.9169C15.2339 20.7489 14.6828 20.6622 14.1282 20.6604Z" fill="#FF004F"/>
<path id="Vector_4" d="M35.4233 10.6358V15.757C32.006 15.757 28.8412 14.6641 26.2559 12.809V26.1999C26.2559 32.8873 20.816 38.328 14.1286 38.328C11.5442 38.328 9.14783 37.5125 7.1781 36.1294C9.46738 38.5983 12.682 40.0009 16.0486 40C22.736 40 28.1767 34.5592 28.1767 27.8727V14.4819C30.8474 16.4023 34.0548 17.4338 37.3441 17.4298V10.8389C36.6846 10.8389 36.0432 10.7673 35.4228 10.6344" fill="#FF004F"/>
<path id="Vector_5" d="M26.2555 26.1994V12.8086C28.9261 14.7295 32.1335 15.7606 35.4228 15.7566V10.6358C33.4833 10.2176 31.7318 9.18159 30.4309 7.68295C28.3256 6.31365 26.8728 4.1417 26.411 1.67331H21.5871L21.5769 28.0803C21.4662 31.0375 19.0321 33.4113 16.0481 33.4113C14.2673 33.4095 12.5958 32.55 11.5584 31.1029C9.73493 30.1469 8.5914 28.2589 8.58918 26.1999C8.59273 23.1422 11.0705 20.6644 14.1282 20.6609C14.6979 20.6609 15.245 20.7542 15.7624 20.9173V15.7503C9.20694 15.9041 3.92084 21.28 3.92084 27.8723C3.92084 31.0602 5.15948 33.9624 7.17765 36.1299C9.21228 37.5623 11.6402 38.3298 14.1282 38.3276C20.816 38.3276 26.2555 32.8868 26.2555 26.1994Z" fill="black"/>
</g>
</g>
</svg>
