<svg width="40" height="40" viewBox="0 0 40 40" fill="none" xmlns="http://www.w3.org/2000/svg">
<g id="Property 1=Youtube">
<path id="Vector" d="M38.8835 10.1562C38.5137 8.09448 36.7519 6.59302 34.7073 6.12427C31.6476 5.46875 25.9851 5 19.8586 5C13.7357 5 7.9826 5.46875 4.91934 6.12427C2.87838 6.59302 1.11292 7.99927 0.743157 10.1562C0.369767 12.5 0 15.7812 0 20C0 24.2188 0.369767 27.5 0.833787 29.8438C1.20718 31.9055 2.96901 33.407 5.00997 33.8757C8.25811 34.5312 13.8264 35 19.9529 35C26.0794 35 31.6476 34.5312 34.8958 33.8757C36.9367 33.407 38.6986 32.0007 39.072 29.8438C39.4417 27.5 39.9057 24.1235 40 20C39.8115 15.7812 39.3475 12.5 38.8835 10.1562ZM14.8486 26.5625V13.4375L26.17 20L14.8486 26.5625Z" fill="white"/>
</g>
</svg>
