<svg width="40" height="40" viewBox="0 0 40 40" fill="none" xmlns="http://www.w3.org/2000/svg">
<g id="Property 1=Spotify-couleur" clip-path="url(#clip0_540_4012)">
<path id="Vector" d="M19.9574 0C8.93549 0 0 8.95424 0 19.9996C0 31.0462 8.93549 40 19.9574 40C30.9799 40 39.9149 31.0462 39.9149 19.9996C39.9149 8.95495 30.9804 0.000954567 19.9572 0.000954567L19.9574 0ZM29.1098 28.8452C28.7514 29.4344 27.9854 29.619 27.3994 29.2601C22.7129 26.3896 16.814 25.7412 9.86705 27.3316C9.19763 27.4854 8.53034 27.0648 8.37782 26.3942C8.22458 25.7233 8.64234 25.0546 9.31345 24.9018C16.9158 23.16 23.4369 23.9097 28.6973 27.1309C29.2835 27.4916 29.4694 28.2582 29.1096 28.8457L29.1098 28.8452ZM31.5526 23.4003C31.1012 24.1342 30.1436 24.3644 29.4122 23.9137C24.0489 20.6098 15.8705 19.6529 9.52532 21.5831C8.7024 21.8321 7.83326 21.3674 7.5835 20.5442C7.33565 19.7195 7.79966 18.8502 8.62114 18.5994C15.8691 16.3955 24.8794 17.4631 31.0399 21.2568C31.7716 21.7082 32.0027 22.6683 31.5523 23.4005L31.5526 23.4003ZM31.7623 17.7296C25.3291 13.901 14.7178 13.549 8.57656 15.4168C7.59041 15.7166 6.54753 15.1587 6.24868 14.1704C5.94982 13.1817 6.50606 12.1373 7.49293 11.8368C14.5426 9.69221 26.2619 10.1066 33.6674 14.5122C34.5544 15.0397 34.8454 16.1877 34.3196 17.0755C33.7953 17.9644 32.6467 18.2574 31.7625 17.7296H31.7623Z" fill="#2EBD59"/>
</g>
<defs>
<clipPath id="clip0_540_4012">
<rect width="40" height="40" fill="white"/>
</clipPath>
</defs>
</svg>
