<svg width="40" height="40" viewBox="0 0 40 40" fill="none" xmlns="http://www.w3.org/2000/svg">
<g id="Property 1=Spotify" clip-path="url(#clip0_414_1005)">
<path id="Vector" d="M20 0C8.97214 0 0 8.97214 0 20C0 31.0279 8.97214 40 20 40C31.0279 40 40 31.0287 40 20C40 8.97127 31.0279 0 20 0ZM28.4654 28.9895C28.2142 29.3668 27.8004 29.5702 27.3789 29.5702C27.1303 29.5702 26.879 29.4998 26.6565 29.3511C24.5069 27.9178 20.8614 26.9616 17.8191 26.9625C14.5908 26.9642 12.1709 27.757 12.1466 27.7648C11.4651 27.996 10.7254 27.624 10.4976 26.9408C10.2699 26.2576 10.6393 25.5187 11.3225 25.2918C11.4373 25.2536 14.1727 24.3574 17.8191 24.3557C20.8614 24.3539 25.0928 25.1745 28.1038 27.1815C28.7036 27.5814 28.8652 28.3906 28.4654 28.9895ZM31.0661 23.6525C30.7836 24.1062 30.296 24.3557 29.7979 24.3557C29.5284 24.3557 29.2555 24.2835 29.0104 24.1297C25.1128 21.7011 21.1074 21.1874 17.6566 21.2178C13.7607 21.2526 10.6454 21.9957 10.5924 22.0114C9.80399 22.2356 8.97475 21.775 8.74962 20.9831C8.52449 20.1895 8.98605 19.3646 9.77878 19.1403C10.0196 19.0717 13.1288 18.3067 17.3854 18.2711C21.2665 18.239 26.1028 18.8013 30.5898 21.5968C31.2878 22.0314 31.5025 22.9528 31.0661 23.6525ZM33.6607 17.4114C33.3365 17.9625 32.7559 18.2694 32.1596 18.2694C31.8606 18.2694 31.5581 18.192 31.2808 18.0303C26.7382 15.3636 21.2152 14.7977 17.3819 14.7925C17.3636 14.7925 17.3454 14.7925 17.3271 14.7925C12.6916 14.7925 9.12165 15.6078 9.08601 15.6165C8.14898 15.8312 7.21631 15.2523 6.999 14.317C6.78169 13.3826 7.36147 12.449 8.29588 12.2309C8.45669 12.1935 12.2709 11.3156 17.3271 11.3156C17.3471 11.3156 17.3671 11.3156 17.3871 11.3156C21.6507 11.3217 27.8274 11.9701 33.0419 15.0315C33.8694 15.5183 34.1466 16.5839 33.6607 17.4114Z" fill="white"/>
</g>
<defs>
<clipPath id="clip0_414_1005">
<rect width="40" height="40" fill="white"/>
</clipPath>
</defs>
</svg>
